<svg fill="none" height="15" viewBox="0 0 15 15" width="15" xmlns="http://www.w3.org/2000/svg"><path clip-rule="evenodd" d="m8.5 3c-.27614 0-.5-.22386-.5-.5s.22386-.5.5-.5h4c.2761 0 .5.22386.5.5v4c0 .27614-.2239.5-.5.5s-.5-.22386-.5-.5v-2.79289l-5.14645 5.14644c-.19526.19527-.51184.19527-.7071 0-.19527-.19526-.19527-.51184 0-.7071l5.14645-5.14645zm-6.5 1.5c0-.27614.22386-.5.5-.5h3c.27614 0 .5.22386.5.5s-.22386.5-.5.5h-2.5v7h7v-2.5c0-.27614.2239-.5.5-.5s.5.22386.5.5v3c0 .2761-.2239.5-.5.5h-8c-.27614 0-.5-.2239-.5-.5z" fill="#ccced3" fill-rule="evenodd"/></svg>