<svg height="1024" preserveAspectRatio="none" viewBox="0 0 1024 1024" width="1024" xmlns="http://www.w3.org/2000/svg"><path d="m969.6 351.25q-8.6-20.85-19.4-40.85-6.1-11.35-12.9-22.4-29.35-47.55-71.55-89.8-138.25-138.25-333.8-138.25-195.5 0-333.75 138.25-138.25 138.25-138.25 333.75 0 195.55 138.25 333.8 138.25 138.2 333.75 138.2 195.55 0 333.8-138.2 76.15-76.2 110.35-169.75 27.85-76.25 27.85-164.05 0-67.35-16.4-127.95-1.85-6.85-3.9-13.6-6.15-19.95-14.05-39.15z" fill-opacity=".098039"/><path d="m969.7 392q-1.75-6.85-3.65-13.6-1.52421875-5.28554687-3.2-10.55-2.47128906-7.946875-5.25-15.8-9.75-27.55-23.15-53.65-5.8-11.35-12.3-22.4-30.65-52-76.35-97.75-109-109-253.65-132.05-24.5-3.9-50.05-5.35-14.9-.85-30.1-.85-14.1 0-27.9.75-177.55 9.2-305.85 137.5-138.25 138.25-138.25 333.75 0 195.55 138.25 333.8 84.79003906 84.75703125 191.1 117.55 54.53808594 16.81308594 114.75 19.95.2 0 .4 0 12.15.6 24.5.7 1.5 0 3 0 15.25 0 30.1-.8 3.5-.2 6.95-.45 30.05-2.15 58.7-7.7 11.8-2.3 23.4-5.15 120.6-30.05 214.65-124.1 72.9-72.95 107.35-161.8 27.75-71.6 30.55-153.5.3-9.2.3-18.5 0-1 0-2 0-.5 0-1-.35-61.3-14.3-117z" fill="#656030"/><path d="m953.15 684q8.84589844-22.82402344 15.15-46.7l-130.3-130.3-593-123 150 150-66 232 216.95 216.95q1.56152344-.08847656 3.1-.2 30.05-2.15 58.7-7.7 11.8-2.3 23.4-5.15 120.6-30.05 214.65-124.1 72.9-72.95 107.35-161.8z" fill-opacity=".2"/><g transform="matrix(6.54808044 0 0 6.54808044 244.35 -2749.2)"><path d="m15.85 457.3q-.7-.45-1.45-.3-.8.15-1.3.8l-12.7 18.2q-.5.65-.35 1.5.1.8.75 1.3l45.3 31.7q.7.4 1.25.35h30.2q.75 0 1.4-.55l11.1-11.15q.6-.55.6-1.4 0-.85-.6-1.4l-11.1-11.1q-.5-.6-1.4-.6h-22.65z" fill="#cfcaa3"/><path d="m47.4 484.65q-.7-.1-1.3.35l-45.3 31.7q-.65.45-.75 1.25-.15.85.35 1.5l12.7 18.25q.5.65 1.3.8.75.15 1.45-.3l39.05-27.35h22.65q.9 0 1.4-.6.7-.6 1.6-1.55l9.5-9.55q.6-.55.6-1.4 0-.85-.6-1.4l-10.05-10.1v.05l-1.05-1.1q-.65-.55-1.4-.55z" fill="#ccc361"/></g></svg>